<svg width="18" height="18" viewBox="0 0 18 18" fill="none" xmlns="http://www.w3.org/2000/svg">
<g id="twitter">
<path id="icon" fill-rule="evenodd" clip-rule="evenodd" d="M15.8397 3.3812L16.9007 3.50512L16.4238 4.461C16.1912 4.92714 15.9583 5.39329 15.7253 5.85943C15.6976 5.95816 15.6491 6.04472 15.5772 6.1574C15.5472 6.20449 15.4447 6.35427 15.4399 6.36146C15.4128 6.40206 15.3928 6.43408 15.3784 6.45974V8.25114C15.3784 12.8351 10.9421 15.7481 6.75266 15.7481C5.89538 15.7481 5.24405 15.707 4.49823 15.5442C3.27086 15.2764 2.35746 14.744 1.93948 13.8135L1.50916 12.8555L2.55494 12.7593C3.501 12.6723 4.32127 12.4921 4.95119 12.2507C3.22183 11.9726 2.2527 11.2131 2.2527 9.78666V9.03666H3.0027C3.16748 9.03666 3.31607 9.02329 3.44891 8.99876C2.151 8.22273 1.50092 6.97784 1.50092 5.25114C1.50077 5.17755 1.50077 5.17755 1.50033 5.09886C1.49546 4.22852 1.5422 3.76347 1.78046 3.16994C1.93316 2.78956 2.15387 2.43741 2.45092 2.11475L3.01688 1.5L3.56713 2.12885C5.38045 4.20121 7.17296 5.45846 9.00313 5.61054C9.01095 3.69829 10.4562 2.25114 12.3783 2.25114C13.2743 2.25114 14.0871 2.59126 14.7259 3.20454C15.0755 3.27638 15.4467 3.33532 15.8397 3.3812ZM14.1815 4.62154L13.9516 4.56948L13.7928 4.39523C13.4088 3.97394 12.927 3.75117 12.3783 3.75117C11.281 3.75117 10.5031 4.53296 10.5031 5.62617C10.5031 5.80483 10.4985 5.91709 10.4762 6.06464C10.3874 6.6534 10.0572 7.12617 9.37808 7.12617C7.12955 7.12617 5.10102 5.92159 3.12292 3.86424C3.02095 4.17423 2.99696 4.49288 3.00031 5.09048C3.00076 5.1704 3.00076 5.1704 3.00092 5.25117C3.00092 6.78717 3.6232 7.62736 5.0966 8.09567L5.61942 8.26184V8.81043C5.61942 9.47567 4.98917 10.1019 4.06702 10.3824C4.48974 10.7031 5.35426 10.8762 6.75292 10.8762H7.50292V11.6262C7.50292 12.7007 6.26822 13.5421 4.40307 13.9814C5.01134 14.1678 5.82125 14.2481 6.75266 14.2481C10.2135 14.2481 13.8784 11.8416 13.8784 8.25117V6.37617C13.8784 6.15583 13.9423 5.96458 14.0484 5.76572C14.0899 5.68797 14.1355 5.61385 14.1919 5.52931C14.2025 5.51339 14.2419 5.45572 14.2732 5.40962L14.3326 5.29074C14.4289 5.09811 14.5252 4.90548 14.6214 4.71285C14.4719 4.68452 14.3252 4.65409 14.1815 4.62154Z" fill="#919191"/>
</g>
</svg>
